<svg width="157" height="40" viewBox="0 0 157 40" xmlns="http://www.w3.org/2000/svg" xmlns:xlink="http://www.w3.org/1999/xlink"><defs><polygon id="a" points="0 0 18.5266305 0 18.5266305 22.7163229 0 22.7163229"/></defs><g fill="none" fill-rule="evenodd"><polygon fill="#221613" points="139.372858 2.04269116 135.662431 9.31880273 140.435643 9.31880273 141.978396 6.29379447 150.077098 6.29379447 141.628345 22.9859798 146.400354 22.9859798 156.99994 2.04269116"/><polygon fill="#221613" points="88.8222814 6.30220061 93.0800394 6.30220061 93.0800394 2.04149029 88.8222814 2.04149029"/><polygon fill="#221613" points="82.601949 6.30160017 86.8603084 6.30160017 86.8603084 2.04088985 82.601949 2.04088985"/><polygon fill="#221613" points="125.141637 15.3928368 129.133548 15.3928368 129.133548 11.141133 125.141637 11.141133"/><polygon fill="#221613" points="126.47484 23.0001501 130.990626 23.0001501 136.560175 11.9706986 132.045592 11.9706986"/><polygon fill="#221613" points="119.185948 15.3928368 123.178461 15.3928368 123.178461 11.141133 119.185948 11.141133"/><polygon fill="#221613" points="96.3267378 6.29199316 116.563569 6.29199316 116.563569 2.04088985 96.3267378 2.04088985"/><polygon fill="#221613" points="96.3269784 13.9048906 104.091868 13.9048906 99.5111246 22.983518 104.280728 22.983518 108.861472 13.9048906 116.563809 13.9048906 116.563809 10.0368669 96.3269784 10.0368669"/><polygon fill="#221613" points="69.0867099 22.9981086 73.4960367 22.9981086 79.2183576 2.04100994 74.8072264 2.04100994"/><polygon fill="#221613" points="82.6016482 8.26179111 86.6302488 22.9983488 90.8868039 22.9983488 86.8600077 8.26179111"/><polygon fill="#221613" points="55.1331245 17.0927977 55.1331245 2.04100994 50.5782437 2.04100994 50.5782437 22.9836981 55.1331245 22.9836981 55.1331245 22.9764928 55.1403421 22.9836981 68.6281544 10.037047 62.4836063 10.037047"/><polygon fill="#D3D3D4" points="9.31558238 17.2842175 0.000120292641 21.504098 7.28504261 28.7772074 12.4672496 25.0556907 47.3533183 0"/><polygon fill="#CC2525" points="12.4672496 25.0556907 7.28504261 28.7772074 18.5263899 40 47.3533183 0"/><g transform="translate(0 17.284)"><mask id="b" fill="#fff"><use xlink:href="#a"/></mask><polygon fill-opacity=".5" fill="#231815" mask="url(#b)" points="12.4668887 7.77147318 9.31582296 0 -0.000240585281 4.21988051 7.28468173 11.4929899 18.5266305 22.716383"/></g><polygon fill="#CC2525" points="43.2452644 27.3434207 35.447294 39.4188358 149.201428 39.4188358 157 27.3434207"/><path d="M3.20519741.192431427 4.67818079.00749642462C4.73231248-.0021105885 4.89470755-.0225254914 4.89470755.100564364 4.89470755.182223976 4.82974952.244069123 4.73231248.316121721L4.94883923 1.71274125 7.53753686 1.4047164 7.68910559 2.67824607 5.14371331 2.99647838 5.36084153 4.35226811 9.07547827 3.90013805 9.227047 5.19408263 5.55571561 5.64621269 6.06455347 8.95342695 4.60239643 9.2002071 4.08273222 5.83114769.173221402 6.3139001 0 4.99954062 3.87703181 4.53660267 3.67072993 3.18141338.898586025 3.53086849.73619096 2.21590857 3.46563098 1.89767626 3.20519741.192431427ZM12.330537 1.83601124 13.6086463 1.69250648C13.7060833 1.68169859 13.8359994 1.66128369 13.8359994 1.79518143 13.8359994 1.86663359 13.760215 1.91827129 13.6844306 1.979516L13.9983944 3.52024073 16.8036188 2.99665851C16.9984929 2.95522827 17.193367 2.86276077 17.323283 2.72946346L18.2326954 3.37613553C17.8645999 3.79764323 16.5431852 5.88236508 16.2617005 6.29366533 15.861126 6.05709263 15.2331984 5.81031248 15.0593755 5.73886032 15.1682404 5.60496257 15.4058183 5.28673027 15.6662519 4.9378756 15.8394733 4.69109545 16.0451737 4.4034855 16.1317844 4.25998074L14.2371753 4.65026565 15.092456 8.78908699 13.8468257 9.06648949 12.9692909 4.9174607 10.6849337 5.38940522 10.3378894 4.20834304 12.7311115 3.75621299 12.330537 1.83601124ZM26.4496451.120859179C26.6126416.131066631 26.6667733.161688985 26.6667733.212726242 26.6667733.346623988 26.5260309.387453793 26.4496451.418676586L26.4496451 3.74630576C26.4496451 7.17660988 24.3385092 8.41891676 22.2484246 9.25112427 22.0643769 8.81940912 21.7504131 8.43933166 21.2951054 8.13190724 24.8365208 7.03310512 24.9117037 4.88653813 24.9117037 3.75651321L24.9117037.048806581 26.4496451.120859179ZM21.4250215.305794182C21.5549375.316001633 21.6415482.316001633 21.6415482.408469135 21.6415482.510543649 21.5116322.562181345 21.4250215.603611589L21.4250215 5.57464044 19.9087327 5.57464044 19.9087327.243949035 21.4250215.305794182ZM34.2510438 2.63699596C34.3262267 2.63699596 34.4236638 2.65741086 34.4236638 2.73967091 34.4236638 2.85255332 34.2937477 2.92460591 34.2510438 2.94562126 34.2077385 4.01320059 34.0339156 5.13241762 33.6982992 5.96462513 33.3091525 6.90971504 32.3877108 8.22467496 30.9261553 9.00464434 30.4389701 8.59394453 30.2007906 8.41921698 29.6486474 8.09077722 31.2611703 7.22794735 32.8857224 6.06730008 32.6806234 2.54452846L34.2510438 2.63699596ZM37.0664931.747416566C37.2613672.747416566 37.4887203.726401225 37.672768.654949065L38.6910452 1.54840129C38.5611292 1.69250648 38.5178238 1.75375119 38.3006956 2.06177605 36.9468019 3.92133353 35.7992101 4.92706771 35.2470669 5.40982012 35.0088875 5.1228106 34.7268012 4.81418531 34.1860858 4.44491574 35.2909737 3.57187842 35.7992101 3.09933347 36.5245748 2.07258394L29.0634237 2.07258394 29.0634237.747416566 37.0664931.747416566Z" transform="translate(77.233 28.717)" fill="#FFF"/></g></svg>