<svg width="118" height="113" viewBox="0 0 118 113" fill="none" xmlns="http://www.w3.org/2000/svg">
<path d="M1.5 106.5H0.75V107.25H1.5V106.5ZM117.03 107.03C117.323 106.737 117.323 106.263 117.03 105.97L112.257 101.197C111.964 100.904 111.49 100.904 111.197 101.197C110.904 101.49 110.904 101.964 111.197 102.257L115.439 106.5L111.197 110.743C110.904 111.036 110.904 111.51 111.197 111.803C111.49 112.096 111.964 112.096 112.257 111.803L117.03 107.03ZM0.75 0V2.95833H2.25V0H0.75ZM0.75 8.875V14.7917H2.25V8.875H0.75ZM0.75 20.7083V26.625H2.25V20.7083H0.75ZM0.75 32.5417V38.4583H2.25V32.5417H0.75ZM0.75 44.375V50.2917H2.25V44.375H0.75ZM0.75 56.2083V62.125H2.25V56.2083H0.75ZM0.75 68.0417V73.9583H2.25V68.0417H0.75ZM0.75 79.875V85.7917H2.25V79.875H0.75ZM0.75 91.7083V97.625H2.25V91.7083H0.75ZM0.75 103.542V106.5H2.25V103.542H0.75ZM1.5 107.25H4.375V105.75H1.5V107.25ZM10.125 107.25H15.875V105.75H10.125V107.25ZM21.625 107.25H27.375V105.75H21.625V107.25ZM33.125 107.25H38.875V105.75H33.125V107.25ZM44.625 107.25H50.375V105.75H44.625V107.25ZM56.125 107.25H61.875V105.75H56.125V107.25ZM67.625 107.25H73.375V105.75H67.625V107.25ZM79.125 107.25H84.875V105.75H79.125V107.25ZM90.625 107.25H96.375V105.75H90.625V107.25ZM102.125 107.25H107.875V105.75H102.125V107.25ZM113.625 107.25H116.5V105.75H113.625V107.25Z" fill="#86C240"/>
</svg>
