<svg xmlns="http://www.w3.org/2000/svg" width="24" height="24">
    <path fill="#333" fill-rule="nonzero" d="M19.077 10.433l.61-.464c.063-.063.13-.073.204-.031.073.041.109.104.109.187V16.5c0 .417-.146.77-.438 1.063A1.447 1.447 0 0 1 18.5 18h-13c-.417 0-.77-.146-1.063-.437A1.447 1.447 0 0 1 4 16.5v-6.375c0-.083.036-.14.11-.172a.202.202 0 0 1 .202.016l.688.513c.86.637 2.234 1.643 4.125 3.018l.312.281.404.296c.314.226.576.398.784.517.5.27.958.406 1.375.406.365 0 .761-.112 1.19-.335l.185-.102c.312-.167.708-.438 1.187-.813l.313-.25 3.15-2.287c.409-.3.76-.56 1.052-.78zM12 14c-.232 0-.51-.092-.834-.275l-.166-.1c-.23-.125-.552-.354-.969-.687l-.312-.22-2.63-1.932C5.92 9.922 5.058 9.275 4.5 8.844l-.219-.156A.712.712 0 0 1 4 8.094V7.5c0-.417.146-.77.437-1.062A1.447 1.447 0 0 1 5.5 6h13c.417 0 .77.146 1.062.438.292.291.438.645.438 1.062v.594c0 .25-.094.448-.281.594l-.41.323c-.955.74-2.631 1.977-5.028 3.708l-.312.219-.334.26a6.519 6.519 0 0 1-.531.367l-.104.06c-.396.25-.73.375-1 .375z"/>
</svg>
