<svg id="Layer_1" data-name="Layer 1" xmlns="http://www.w3.org/2000/svg" xmlns:xlink="http://www.w3.org/1999/xlink" viewBox="0 0 2500.11 740.74"><defs><style>.cls-1{fill:none;}.cls-2{fill:#fff;}.cls-3{clip-path:url(#clip-path);}.cls-4{fill:#00a0ff;}.cls-5{fill:#00a1ff;}.cls-6{fill:#00a2ff;}.cls-7{fill:#00a3ff;}.cls-8{fill:#00a4ff;}.cls-9{fill:#00a5ff;}.cls-10{fill:#00a6ff;}.cls-11{fill:#00a7ff;}.cls-12{fill:#00a8ff;}.cls-13{fill:#00a9ff;}.cls-14{fill:#0af;}.cls-15{fill:#00abff;}.cls-16{fill:#00acff;}.cls-17{fill:#00adff;}.cls-18{fill:#00aeff;}.cls-19{fill:#00b0ff;}.cls-20{fill:#00b1ff;}.cls-21{fill:#00b2ff;}.cls-22{fill:#00b3ff;}.cls-23{fill:#00b4ff;}.cls-24{fill:#00b5ff;}.cls-25{fill:#00b6ff;}.cls-26{fill:#00b7ff;}.cls-27{fill:#00b8ff;}.cls-28{fill:#00b9ff;}.cls-29{fill:#00baff;}.cls-30{fill:#0bf;}.cls-31{fill:#00bcff;}.cls-32{fill:#00bdff;}.cls-33{fill:#00beff;}.cls-34{fill:#00bfff;}.cls-35{fill:#00c0ff;}.cls-36{fill:#00c1ff;}.cls-37{fill:#00c2ff;}.cls-38{fill:#00c3ff;}.cls-39{fill:#00c4ff;}.cls-40{fill:#00c5ff;}.cls-41{fill:#00c6ff;}.cls-42{fill:#00c7ff;}.cls-43{fill:#00c9ff;}.cls-44{fill:#00caff;}.cls-45{fill:#00cbff;}.cls-46{fill:#0cf;}.cls-47{fill:#00cdff;}.cls-48{fill:#00ceff;}.cls-49{fill:#00cfff;}.cls-50{fill:#00d0ff;}.cls-51{fill:#00d1ff;}.cls-52{fill:#00d2ff;}.cls-53{fill:#00d3ff;}.cls-54{fill:#00d4ff;}.cls-55{fill:#00d5ff;}.cls-56{fill:#00d6ff;}.cls-57{fill:#00d7ff;}.cls-58{fill:#00d9ff;}.cls-59{fill:#00daff;}.cls-60{fill:#00dbff;}.cls-61{fill:#00dcff;}.cls-62{fill:#0df;}.cls-63{fill:#00deff;}.cls-64{fill:#00dfff;}.cls-65{fill:#00e0ff;}.cls-66{fill:#00e2ff;}.cls-67{fill:#00e3ff;}.cls-68{clip-path:url(#clip-path-2);}.cls-69{fill:#ffdf00;}.cls-70{fill:#ffde00;}.cls-71{fill:#fd0;}.cls-72{fill:#ffdc00;}.cls-73{fill:#ffdb00;}.cls-74{fill:#ffda00;}.cls-75{fill:#ffd900;}.cls-76{fill:#ffd800;}.cls-77{fill:gold;}.cls-78{fill:#ffd600;}.cls-79{fill:#ffd500;}.cls-80{fill:#ffd400;}.cls-81{fill:#ffd300;}.cls-82{fill:#ffd200;}.cls-83{fill:#ffd100;}.cls-84{fill:#ffd000;}.cls-85{fill:#ffcf00;}.cls-86{fill:#ffcd00;}.cls-87{fill:#fc0;}.cls-88{fill:#ffcb00;}.cls-89{fill:#ffca00;}.cls-90{fill:#ffc900;}.cls-91{fill:#ffc800;}.cls-92{fill:#ffc700;}.cls-93{fill:#ffc600;}.cls-94{fill:#ffc500;}.cls-95{fill:#ffc400;}.cls-96{fill:#ffc300;}.cls-97{fill:#ffc200;}.cls-98{fill:#ffc100;}.cls-99{fill:#ffc000;}.cls-100{fill:#ffbf00;}.cls-101{fill:#ffbe00;}.cls-102{fill:#ffbd00;}.cls-103{fill:#ffbc00;}.cls-104{fill:#fb0;}.cls-105{clip-path:url(#clip-path-3);}.cls-106{fill:#ff3a44;}.cls-107{fill:#fe3945;}.cls-108{fill:#fd3945;}.cls-109{fill:#fc3846;}.cls-110{fill:#fb3746;}.cls-111{fill:#fa3747;}.cls-112{fill:#f93647;}.cls-113{fill:#f83548;}.cls-114{fill:#f73448;}.cls-115{fill:#f63449;}.cls-116{fill:#f53349;}.cls-117{fill:#f4324a;}.cls-118{fill:#f3324a;}.cls-119{fill:#f2314b;}.cls-120{fill:#f1304b;}.cls-121{fill:#f0304c;}.cls-122{fill:#ef2f4c;}.cls-123{fill:#ee2e4d;}.cls-124{fill:#ed2d4d;}.cls-125{fill:#ec2d4e;}.cls-126{fill:#eb2c4e;}.cls-127{fill:#ea2b4f;}.cls-128{fill:#e92b4f;}.cls-129{fill:#e82a50;}.cls-130{fill:#e72950;}.cls-131{fill:#e62951;}.cls-132{fill:#e52851;}.cls-133{fill:#e42752;}.cls-134{fill:#e32752;}.cls-135{fill:#e22653;}.cls-136{fill:#e02553;}.cls-137{fill:#df2454;}.cls-138{fill:#de2454;}.cls-139{fill:#dd2355;}.cls-140{clip-path:url(#clip-path-4);}.cls-141{fill:#15cf74;}.cls-142{fill:#14d074;}.cls-143{fill:#14d174;}.cls-144{fill:#13d274;}.cls-145{fill:#12d374;}.cls-146{fill:#12d474;}.cls-147{fill:#11d574;}.cls-148{fill:#10d674;}.cls-149{fill:#10d774;}.cls-150{fill:#0fd874;}.cls-151{fill:#0ed974;}.cls-152{fill:#0eda74;}.cls-153{fill:#0ddc75;}.cls-154{fill:#0ddd75;}.cls-155{fill:#0cde75;}.cls-156{fill:#0bdf75;}.cls-157{fill:#0be075;}.cls-158{fill:#0ae175;}.cls-159{fill:#09e275;}.cls-160{fill:#09e375;}.cls-161{fill:#08e475;}.cls-162{fill:#07e575;}.cls-163{fill:#07e675;}.cls-164{fill:#06e775;}.cls-165{fill:#05e875;}.cls-166{fill:#05e975;}.cls-167{fill:#04ea75;}.cls-168{fill:#03ec76;}.cls-169{fill:#02ed76;}.cls-170{fill:#02ee76;}.cls-171{fill:#01ef76;}.cls-172{fill:#00f076;}.cls-173{opacity:0.2;}.cls-173,.cls-174,.cls-175{isolation:isolate;}.cls-174{opacity:0.12;}.cls-175{opacity:0.25;}</style><clipPath id="clip-path"><path class="cls-1" d="M192.59,138.89c-5.55,5.55-7.4,14.81-7.4,25.92V574.07c0,11.12,3.7,20.37,9.25,25.93l1.86,1.85L425.93,372.22v-3.7Z"/></clipPath><clipPath id="clip-path-2"><path class="cls-1" d="M500,450l-75.93-75.93v-5.55L500,292.59l1.85,1.85,90.74,51.86c25.93,14.81,25.93,38.89,0,53.7Z"/></clipPath><clipPath id="clip-path-3"><path class="cls-1" d="M501.85,448.15l-77.78-77.78L192.59,601.85c9.26,9.26,22.22,9.26,38.89,1.85L501.85,448.15"/></clipPath><clipPath id="clip-path-4"><path class="cls-1" d="M501.85,292.59,231.48,138.89c-16.67-9.26-29.63-7.41-38.89,1.85L424.07,370.37l77.78-77.78Z"/></clipPath></defs><path d="M2407.41,740.74H92.59C40.74,740.74,0,700,0,648.15V92.59C0,40.74,40.74,0,92.59,0H2407.41C2459.26,0,2500,40.74,2500,92.59V648.15C2500,700,2459.26,740.74,2407.41,740.74Z"/><path class="cls-2" d="M1364.27,143.13c-11.74-11.74-25.1-17.21-42-17.21s-30.31,5.47-42,17.21S1263,168.23,1263,185.18s5.47,30.31,17.21,42,25.11,17.21,42,17.21,30.31-5.47,42-17.21,17.21-25.1,17.21-42S1376,154.87,1364.27,143.13Zm-13.86,72.38c-6.33,7.91-16.34,12.26-28.19,12.26-9.8,0-20.66-4.76-28.32-12.42l-.15-.13c-8.14-6.52-12.27-16.62-12.27-30A42.93,42.93,0,0,1,1293.9,155l.14-.15c6.33-7.92,16.34-12.27,28.18-12.27,9.81,0,20.66,4.76,28.32,12.42l.16.13c8.14,6.52,12.26,16.62,12.26,30a42.89,42.89,0,0,1-12.42,30.17Z"/><polygon class="cls-2" points="912.96 142.59 912.96 177.78 959.26 177.78 959.26 190.75 912.96 190.75 912.96 225.93 962.96 225.93 962.96 240.75 898.15 240.75 898.15 129.63 962.96 129.63 962.96 142.59 912.96 142.59"/><path class="cls-2" d="M879.63,179.62v9.26c0,16.49-4.54,29.39-13.51,38.35-11.74,11.74-25.1,17.21-42,17.21S793.77,239,782,227.23s-17.21-25.1-17.21-42,5.47-30.31,17.21-42.05,25.11-17.21,42.05-17.21a51.41,51.41,0,0,1,23,5.75c6.49,3.24,13.08,7.13,17.38,13.59l.85,1.27-11.8,11.79-1.29-1.61c-6.88-8.6-15.31-12.27-28.19-12.27-11.84,0-21.85,4.36-28.18,12.27l-.29.29c-8.14,6.51-12.27,16.61-12.27,30s4.13,23.53,12.27,30,17.25,12.55,28.47,12.55c12.61,0,21.35-3.59,30.18-12.42a28.59,28.59,0,0,0,8.66-19.06H822.22V179.62Z"/><path class="cls-2" d="M964.81,144.44V127.77H896.3V242.59h68.51V224.07h-50V192.59h46.3V175.92h-46.3V144.44Zm-5.55,33.33v13H913v35.18h50v14.82H898.15V129.62H963v13H913v35.18Z"/><polygon class="cls-2" points="1487.04 127.78 1487.04 242.59 1469.35 242.59 1414.81 156.4 1414.81 242.59 1398.15 242.59 1398.15 127.78 1417.7 127.78 1468.52 210.13 1468.52 127.78 1487.04 127.78"/><polygon class="cls-2" points="1218.52 127.78 1218.52 144.44 1187.04 144.44 1187.04 242.59 1170.37 242.59 1170.37 144.44 1138.89 144.44 1138.89 127.78 1218.52 127.78"/><rect class="cls-2" x="1107.41" y="127.77" width="18.52" height="114.82"/><polygon class="cls-2" points="1057.41 127.78 1057.41 144.44 1025.93 144.44 1025.93 242.59 1007.41 242.59 1007.41 144.44 975.93 144.44 975.93 127.78 1057.41 127.78"/><path class="cls-2" d="M1261.11,403.7c-44.44,0-79.63,33.34-79.63,79.63A79,79,0,0,0,1261.11,563c44.45,0,79.63-33.33,79.63-79.63C1340.74,435.19,1305.56,403.7,1261.11,403.7Zm0,125.93c-24.07,0-44.44-20.37-44.44-48.15s20.37-48.15,44.44-48.15,44.45,18.52,44.45,48.15C1305.56,509.26,1285.19,529.63,1261.11,529.63ZM1088.89,403.7c-44.45,0-79.63,33.34-79.63,79.63A79,79,0,0,0,1088.89,563c44.44,0,79.63-33.33,79.63-79.63C1168.52,435.19,1133.33,403.7,1088.89,403.7Zm0,125.93c-24.08,0-44.45-20.37-44.45-48.15s20.37-48.15,44.45-48.15,44.44,18.52,44.44,48.15C1133.33,509.26,1113,529.63,1088.89,529.63ZM883.33,427.78v33.33H963c-1.85,18.52-9.26,33.33-18.52,42.59-11.11,11.11-29.63,24.08-61.11,24.08-50,0-87-38.89-87-88.89s38.89-88.89,87-88.89c25.93,0,46.3,11.11,61.11,24.07L968.52,350c-20.37-18.52-46.3-33.33-83.33-33.33-66.67,0-124.08,55.55-124.08,122.22s57.41,122.22,124.08,122.22c37,0,63-11.11,85.18-35.18,22.22-22.23,29.63-53.71,29.63-77.78,0-7.41,0-14.82-1.85-20.37Zm840.74,25.92c-7.4-18.51-25.92-50-66.66-50s-74.08,31.49-74.08,79.63c0,44.45,33.34,79.63,77.78,79.63,35.19,0,57.41-22.22,64.82-35.18L1700,509.26c-9.26,13-20.37,22.22-38.89,22.22s-29.63-7.41-38.89-24.07L1727.78,463l-3.71-9.26Zm-107.4,25.93c0-29.63,24.07-46.3,40.74-46.3,13,0,25.92,7.41,29.63,16.67l-70.37,29.63Zm-87,75.93h35.18V324.07h-35.18Zm-55.56-135.19c-9.26-9.26-24.07-18.52-42.59-18.52-38.89,0-75.92,35.19-75.92,79.63s35.18,77.78,75.92,77.78c18.52,0,33.33-9.26,40.74-18.52h1.85v11.11c0,29.63-16.66,46.3-42.59,46.3-20.37,0-35.18-14.82-38.89-27.78l-29.63,13c9.26,20.37,31.48,46.3,70.37,46.3,40.74,0,74.08-24.07,74.08-81.48V407.41h-33.34v13Zm-40.74,109.26c-24.07,0-44.44-20.37-44.44-48.15s20.37-48.15,44.44-48.15,42.6,20.37,42.6,48.15S1457.41,529.63,1433.33,529.63Zm451.86-205.56h-83.34V555.56H1837v-87h48.15c38.88,0,75.92-27.78,75.92-72.22S1924.07,324.07,1885.19,324.07ZM1887,435.19h-50V355.56h50c25.92,0,40.74,22.22,40.74,38.88-1.85,20.37-16.67,40.75-40.74,40.75Zm213-33.34c-25.93,0-51.85,11.11-61.11,35.19l31.48,13c7.41-13,18.52-16.67,31.48-16.67,18.52,0,35.19,11.11,37,29.63v1.85c-5.56-3.7-20.37-9.25-35.19-9.25-33.33,0-66.66,18.51-66.66,51.85,0,31.48,27.77,51.85,57.4,51.85,24.08,0,35.19-11.11,44.45-22.22h1.85v18.52h33.33V466.67c-3.7-40.74-35.18-64.82-74.07-64.82Zm-3.7,127.78c-11.11,0-27.78-5.56-27.78-20.37,0-18.52,20.37-24.07,37-24.07,14.81,0,22.22,3.7,31.48,7.4C2133.33,514.81,2114.81,529.63,2096.3,529.63Zm194.44-122.22-38.89,100H2250l-40.74-100h-37l61.11,140.74-35.18,77.78h35.18l94.45-218.52ZM1979.63,555.56h35.19V324.07h-35.19Z"/><g class="cls-3"><polygon class="cls-4" points="425.93 183.52 381.3 138.89 425.93 138.89 425.93 183.52"/><polygon class="cls-4" points="425.93 185.69 379.12 138.89 381.3 138.89 425.93 183.52 425.93 185.69"/><polygon class="cls-5" points="425.93 187.87 376.95 138.89 379.12 138.89 425.93 185.69 425.93 187.87"/><polygon class="cls-5" points="425.93 193.29 371.52 138.89 376.95 138.89 425.93 187.87 425.93 193.29"/><polygon class="cls-6" points="425.93 198.72 366.1 138.89 371.52 138.89 425.93 193.29 425.93 198.72"/><polygon class="cls-7" points="425.93 204.14 360.68 138.89 366.1 138.89 425.93 198.72 425.93 204.14"/><polygon class="cls-8" points="425.93 209.56 355.26 138.89 360.68 138.89 425.93 204.14 425.93 209.56"/><polygon class="cls-9" points="425.93 214.99 349.83 138.89 355.26 138.89 425.93 209.56 425.93 214.99"/><polygon class="cls-10" points="425.93 220.41 344.41 138.89 349.83 138.89 425.93 214.99 425.93 220.41"/><polygon class="cls-11" points="425.93 225.83 338.99 138.89 344.41 138.89 425.93 220.41 425.93 225.83"/><polygon class="cls-12" points="425.93 231.25 333.57 138.89 338.99 138.89 425.93 225.83 425.93 231.25"/><polygon class="cls-13" points="425.93 236.68 328.14 138.89 333.57 138.89 425.93 231.25 425.93 236.68"/><polygon class="cls-14" points="425.93 242.1 322.72 138.89 328.14 138.89 425.93 236.68 425.93 242.1"/><polygon class="cls-15" points="425.93 247.52 317.3 138.89 322.72 138.89 425.93 242.1 425.93 247.52"/><polygon class="cls-16" points="425.93 252.94 311.88 138.89 317.3 138.89 425.93 247.52 425.93 252.94"/><polygon class="cls-17" points="425.93 258.37 306.45 138.89 311.88 138.89 425.93 252.94 425.93 258.37"/><polygon class="cls-18" points="425.93 263.79 301.03 138.89 306.45 138.89 425.93 258.37 425.93 263.79"/><polygon class="cls-19" points="425.93 269.21 295.61 138.89 301.03 138.89 425.93 263.79 425.93 269.21"/><polygon class="cls-20" points="425.93 274.64 290.19 138.89 295.61 138.89 425.93 269.21 425.93 274.64"/><polygon class="cls-21" points="425.93 280.06 284.76 138.89 290.19 138.89 425.93 274.64 425.93 280.06"/><polygon class="cls-22" points="425.93 285.48 279.34 138.89 284.76 138.89 425.93 280.06 425.93 285.48"/><polygon class="cls-23" points="425.93 290.9 273.92 138.89 279.34 138.89 425.93 285.48 425.93 290.9"/><polygon class="cls-24" points="425.93 296.33 268.5 138.89 273.92 138.89 425.93 290.9 425.93 296.33"/><polygon class="cls-25" points="425.93 301.75 263.07 138.89 268.5 138.89 425.93 296.33 425.93 301.75"/><polygon class="cls-26" points="425.93 307.17 257.65 138.89 263.07 138.89 425.93 301.75 425.93 307.17"/><polygon class="cls-27" points="425.93 312.6 252.23 138.89 257.65 138.89 425.93 307.17 425.93 312.6"/><polygon class="cls-28" points="425.93 318.02 246.81 138.89 252.23 138.89 425.93 312.6 425.93 318.02"/><polygon class="cls-29" points="425.93 323.44 241.38 138.89 246.81 138.89 425.93 318.02 425.93 323.44"/><polygon class="cls-30" points="425.93 328.87 235.96 138.89 241.38 138.89 425.93 323.44 425.93 328.87"/><polygon class="cls-31" points="425.93 334.29 230.54 138.89 235.96 138.89 425.93 328.87 425.93 334.29"/><polygon class="cls-32" points="425.93 339.71 225.12 138.89 230.54 138.89 425.93 334.29 425.93 339.71"/><polygon class="cls-33" points="425.93 345.13 219.69 138.89 225.12 138.89 425.93 339.71 425.93 345.13"/><polygon class="cls-33" points="425.93 352.97 211.86 138.89 219.69 138.89 425.93 345.13 425.93 352.97"/><polygon class="cls-34" points="425.93 360.8 204.03 138.89 211.86 138.89 425.93 352.97 425.93 360.8"/><polygon class="cls-35" points="425.93 368.63 196.2 138.89 204.03 138.89 425.93 360.8 425.93 368.63"/><polygon class="cls-36" points="425.93 376.46 188.37 138.89 196.2 138.89 425.93 368.63 425.93 376.46"/><polygon class="cls-37" points="425.93 384.29 185.19 143.54 185.19 138.89 188.37 138.89 425.93 376.46 425.93 384.29"/><polygon class="cls-38" points="425.93 392.13 185.19 151.37 185.19 143.54 425.93 384.29 425.93 392.13"/><polygon class="cls-39" points="425.93 399.96 185.19 159.2 185.19 151.37 425.93 392.13 425.93 399.96"/><polygon class="cls-40" points="425.93 407.79 185.19 167.03 185.19 159.2 425.93 399.96 425.93 407.79"/><polygon class="cls-41" points="425.93 415.62 185.19 174.87 185.19 167.03 425.93 407.79 425.93 415.62"/><polygon class="cls-42" points="425.93 423.45 185.19 182.7 185.19 174.87 425.93 415.62 425.93 423.45"/><polygon class="cls-43" points="425.93 424.61 422.59 427.95 185.19 190.53 185.19 182.7 425.93 423.45 425.93 424.61"/><polygon class="cls-44" points="422.59 427.95 418.67 431.87 185.19 198.36 185.19 190.53 422.59 427.95"/><polygon class="cls-45" points="418.67 431.87 414.76 435.78 185.19 206.2 185.19 198.36 418.67 431.87"/><polygon class="cls-46" points="414.76 435.78 410.84 439.7 185.19 214.03 185.19 206.2 414.76 435.78"/><polygon class="cls-47" points="410.84 439.7 406.93 443.61 185.19 221.86 185.19 214.03 410.84 439.7"/><polygon class="cls-48" points="406.93 443.61 403.01 447.53 185.19 229.69 185.19 221.86 406.93 443.61"/><polygon class="cls-49" points="403.01 447.53 399.09 451.44 185.19 237.52 185.19 229.69 403.01 447.53"/><polygon class="cls-50" points="399.09 451.44 395.18 455.36 185.19 245.36 185.19 237.52 399.09 451.44"/><polygon class="cls-51" points="395.18 455.36 391.26 459.28 185.19 253.19 185.19 245.36 395.18 455.36"/><polygon class="cls-52" points="391.26 459.28 387.35 463.19 185.19 261.02 185.19 253.19 391.26 459.28"/><polygon class="cls-52" points="387.35 463.19 381.42 469.12 185.19 272.88 185.19 261.02 387.35 463.19"/><polygon class="cls-53" points="381.42 469.12 375.49 475.05 185.19 284.74 185.19 272.88 381.42 469.12"/><polygon class="cls-54" points="375.49 475.05 369.56 480.98 185.19 296.59 185.19 284.74 375.49 475.05"/><polygon class="cls-55" points="369.56 480.98 363.63 486.91 185.19 308.45 185.19 296.59 369.56 480.98"/><polygon class="cls-56" points="363.63 486.91 357.7 492.83 185.19 320.31 185.19 308.45 363.63 486.91"/><polygon class="cls-57" points="357.7 492.83 351.77 498.76 185.19 332.17 185.19 320.31 357.7 492.83"/><polygon class="cls-58" points="351.77 498.76 345.84 504.69 185.19 344.03 185.19 332.17 351.77 498.76"/><polygon class="cls-59" points="345.84 504.69 339.91 510.62 185.19 355.88 185.19 344.03 345.84 504.69"/><polygon class="cls-60" points="339.91 510.62 333.98 516.55 185.19 367.74 185.19 355.88 339.91 510.62"/><polygon class="cls-61" points="333.98 516.55 328.05 522.48 185.19 379.6 185.19 367.74 333.98 516.55"/><polygon class="cls-62" points="328.05 522.48 322.13 528.41 185.19 391.46 185.19 379.6 328.05 522.48"/><polygon class="cls-63" points="322.13 528.41 316.2 534.34 185.19 403.32 185.19 391.46 322.13 528.41"/><polygon class="cls-64" points="316.2 534.34 310.27 540.26 185.19 415.18 185.19 403.32 316.2 534.34"/><polygon class="cls-64" points="310.27 540.26 291.62 558.91 185.19 452.47 185.19 415.18 310.27 540.26"/><polygon class="cls-65" points="291.62 558.91 272.97 577.56 185.19 489.77 185.19 452.47 291.62 558.91"/><polygon class="cls-66" points="272.97 577.56 254.32 596.21 185.19 527.06 185.19 489.77 272.97 577.56"/><polygon class="cls-67" points="254.32 596.21 248.68 601.85 222.68 601.85 185.19 564.36 185.19 527.06 254.32 596.21"/><polygon class="cls-67" points="185.19 564.36 222.68 601.85 185.19 601.85 185.19 564.36"/></g><g class="cls-68"><rect class="cls-69" x="616.08" y="292.59" width="2.44" height="157.41"/><rect class="cls-70" x="610.85" y="292.59" width="5.24" height="157.41"/><rect class="cls-71" x="605.61" y="292.59" width="5.24" height="157.41"/><rect class="cls-72" x="600.37" y="292.59" width="5.24" height="157.41"/><rect class="cls-73" x="595.14" y="292.59" width="5.24" height="157.41"/><rect class="cls-74" x="589.9" y="292.59" width="5.24" height="157.41"/><rect class="cls-75" x="584.67" y="292.59" width="5.24" height="157.41"/><rect class="cls-76" x="579.43" y="292.59" width="5.24" height="157.41"/><rect class="cls-77" x="574.19" y="292.59" width="5.24" height="157.41"/><rect class="cls-78" x="568.96" y="292.59" width="5.24" height="157.41"/><rect class="cls-79" x="563.72" y="292.59" width="5.24" height="157.41"/><rect class="cls-80" x="558.48" y="292.59" width="5.24" height="157.41"/><rect class="cls-81" x="553.25" y="292.59" width="5.24" height="157.41"/><rect class="cls-82" x="548.01" y="292.59" width="5.24" height="157.41"/><rect class="cls-83" x="542.78" y="292.59" width="5.24" height="157.41"/><rect class="cls-84" x="537.54" y="292.59" width="5.24" height="157.41"/><rect class="cls-85" x="532.3" y="292.59" width="5.24" height="157.41"/><rect class="cls-86" x="527.07" y="292.59" width="5.24" height="157.41"/><rect class="cls-87" x="521.83" y="292.59" width="5.24" height="157.41"/><rect class="cls-88" x="516.59" y="292.59" width="5.24" height="157.41"/><rect class="cls-89" x="511.36" y="292.59" width="5.24" height="157.41"/><rect class="cls-90" x="506.12" y="292.59" width="5.24" height="157.41"/><rect class="cls-91" x="500.88" y="292.59" width="5.24" height="157.41"/><rect class="cls-92" x="495.65" y="292.59" width="5.24" height="157.41"/><rect class="cls-93" x="490.41" y="292.59" width="5.24" height="157.41"/><rect class="cls-94" x="485.18" y="292.59" width="5.24" height="157.41"/><rect class="cls-95" x="479.94" y="292.59" width="5.24" height="157.41"/><rect class="cls-96" x="474.7" y="292.59" width="5.24" height="157.41"/><rect class="cls-97" x="469.47" y="292.59" width="5.24" height="157.41"/><rect class="cls-98" x="464.23" y="292.59" width="5.24" height="157.41"/><rect class="cls-99" x="458.99" y="292.59" width="5.24" height="157.41"/><rect class="cls-100" x="453.76" y="292.59" width="5.24" height="157.41"/><rect class="cls-101" x="448.52" y="292.59" width="5.24" height="157.41"/><rect class="cls-102" x="443.29" y="292.59" width="5.24" height="157.41"/><rect class="cls-102" x="436.45" y="292.59" width="6.83" height="157.41"/><rect class="cls-103" x="429.62" y="292.59" width="6.83" height="157.41"/><rect class="cls-104" x="424.07" y="292.59" width="5.54" height="157.41"/></g><g class="cls-105"><polygon class="cls-106" points="501.85 454.98 417.24 370.37 501.85 370.37 501.85 454.98"/><polygon class="cls-106" points="501.85 469.03 403.19 370.37 417.24 370.37 501.85 454.98 501.85 469.03"/><polygon class="cls-107" points="501.85 483.08 389.14 370.37 403.19 370.37 501.85 469.03 501.85 483.08"/><polygon class="cls-108" points="501.85 497.13 375.1 370.37 389.14 370.37 501.85 483.08 501.85 497.13"/><polygon class="cls-109" points="501.85 500.53 496.53 505.85 366.37 375.69 371.7 370.37 375.1 370.37 501.85 497.13 501.85 500.53"/><rect class="cls-110" x="422.97" y="352.25" width="9.93" height="184.07" transform="translate(-188.82 432.73) rotate(-45)"/><rect class="cls-111" x="415.95" y="359.27" width="9.93" height="184.07" transform="translate(-195.84 429.82) rotate(-45)"/><rect class="cls-112" x="408.92" y="366.3" width="9.93" height="184.07" transform="translate(-202.86 426.91) rotate(-45)"/><rect class="cls-113" x="401.9" y="373.32" width="9.93" height="184.07" transform="translate(-209.89 424) rotate(-45)"/><rect class="cls-114" x="394.87" y="380.35" width="9.93" height="184.07" transform="translate(-216.91 421.09) rotate(-45)"/><rect class="cls-115" x="387.85" y="387.37" width="9.93" height="184.07" transform="translate(-223.94 418.18) rotate(-45)"/><rect class="cls-116" x="380.83" y="394.39" width="9.93" height="184.07" transform="translate(-230.96 415.27) rotate(-45)"/><rect class="cls-117" x="373.8" y="401.42" width="9.93" height="184.07" transform="translate(-237.98 412.36) rotate(-45)"/><rect class="cls-118" x="366.78" y="408.44" width="9.93" height="184.07" transform="translate(-245.01 409.45) rotate(-45)"/><rect class="cls-119" x="359.75" y="415.47" width="9.93" height="184.07" transform="translate(-252.03 406.54) rotate(-45)"/><rect class="cls-120" x="352.73" y="422.49" width="9.93" height="184.07" transform="translate(-259.06 403.63) rotate(-45)"/><rect class="cls-121" x="345.71" y="429.51" width="9.93" height="184.07" transform="translate(-266.08 400.72) rotate(-45)"/><rect class="cls-122" x="338.68" y="436.54" width="9.93" height="184.07" transform="translate(-273.11 397.81) rotate(-45)"/><rect class="cls-123" x="331.66" y="443.56" width="9.93" height="184.07" transform="translate(-280.13 394.9) rotate(-45)"/><polygon class="cls-124" points="398.19 604.19 391.27 611.11 391.07 611.11 261.01 481.06 268.04 474.03 398.19 604.19"/><polygon class="cls-125" points="377.02 611.11 253.99 488.08 261.01 481.06 391.07 611.11 377.02 611.11"/><polygon class="cls-126" points="362.97 611.11 246.96 495.1 253.99 488.08 377.02 611.11 362.97 611.11"/><polygon class="cls-127" points="348.92 611.11 239.94 502.13 246.96 495.1 362.97 611.11 348.92 611.11"/><polygon class="cls-128" points="334.87 611.11 232.91 509.15 239.94 502.13 348.92 611.11 334.87 611.11"/><polygon class="cls-129" points="320.83 611.11 225.89 516.18 232.91 509.15 334.87 611.11 320.83 611.11"/><polygon class="cls-130" points="306.78 611.11 218.87 523.2 225.89 516.18 320.83 611.11 306.78 611.11"/><polygon class="cls-131" points="292.73 611.11 211.84 530.22 218.87 523.2 306.78 611.11 292.73 611.11"/><polygon class="cls-132" points="278.68 611.11 204.82 537.25 211.84 530.22 292.73 611.11 278.68 611.11"/><polygon class="cls-133" points="264.63 611.11 197.79 544.27 204.82 537.25 278.68 611.11 264.63 611.11"/><polygon class="cls-134" points="250.59 611.11 192.59 553.12 192.59 549.47 197.79 544.27 264.63 611.11 250.59 611.11"/><polygon class="cls-135" points="236.54 611.11 192.59 567.17 192.59 553.12 250.59 611.11 236.54 611.11"/><polygon class="cls-136" points="222.49 611.11 192.59 581.22 192.59 567.17 236.54 611.11 222.49 611.11"/><polygon class="cls-137" points="208.44 611.11 192.59 595.26 192.59 581.22 222.49 611.11 208.44 611.11"/><polygon class="cls-138" points="194.39 611.11 192.59 609.31 192.59 595.26 208.44 611.11 194.39 611.11"/><polygon class="cls-139" points="192.59 609.31 194.39 611.11 192.59 611.11 192.59 609.31"/></g><g class="cls-140"><polygon class="cls-141" points="193.03 129.63 192.59 130.06 192.59 129.63 193.03 129.63"/><polygon class="cls-142" points="198.12 129.63 192.59 135.16 192.59 130.06 193.03 129.63 198.12 129.63"/><polygon class="cls-143" points="203.22 129.63 192.59 140.26 192.59 135.16 198.12 129.63 203.22 129.63"/><polygon class="cls-144" points="208.32 129.63 192.59 145.35 192.59 140.26 203.22 129.63 208.32 129.63"/><polygon class="cls-145" points="213.41 129.63 192.59 150.45 192.59 145.35 208.32 129.63 213.41 129.63"/><polygon class="cls-146" points="218.51 129.63 192.59 155.55 192.59 150.45 213.41 129.63 218.51 129.63"/><polygon class="cls-147" points="223.61 129.63 192.59 160.65 192.59 155.55 218.51 129.63 223.61 129.63"/><polygon class="cls-148" points="228.71 129.63 192.59 165.74 192.59 160.65 223.61 129.63 228.71 129.63"/><polygon class="cls-149" points="233.8 129.63 192.59 170.84 192.59 165.74 228.71 129.63 233.8 129.63"/><polygon class="cls-150" points="238.9 129.63 192.59 175.94 192.59 170.84 233.8 129.63 238.9 129.63"/><polygon class="cls-151" points="244 129.63 192.59 181.03 192.59 175.94 238.9 129.63 244 129.63"/><polygon class="cls-152" points="249.09 129.63 192.59 186.13 192.59 181.03 244 129.63 249.09 129.63"/><polygon class="cls-153" points="254.19 129.63 192.59 191.23 192.59 186.13 249.09 129.63 254.19 129.63"/><polygon class="cls-154" points="259.29 129.63 194.2 194.72 192.59 193.12 192.59 191.23 254.19 129.63 259.29 129.63"/><polygon class="cls-155" points="264.39 129.63 196.75 197.27 194.2 194.72 259.29 129.63 264.39 129.63"/><polygon class="cls-156" points="269.48 129.63 199.29 199.82 196.75 197.27 264.39 129.63 269.48 129.63"/><polygon class="cls-157" points="274.58 129.63 201.84 202.37 199.29 199.82 269.48 129.63 274.58 129.63"/><polygon class="cls-158" points="279.68 129.63 204.39 204.92 201.84 202.37 274.58 129.63 279.68 129.63"/><polygon class="cls-159" points="284.78 129.63 206.94 207.47 204.39 204.92 279.68 129.63 284.78 129.63"/><polygon class="cls-160" points="289.87 129.63 209.49 210.01 206.94 207.47 284.78 129.63 289.87 129.63"/><polygon class="cls-161" points="294.97 129.63 212.04 212.56 209.49 210.01 289.87 129.63 294.97 129.63"/><polygon class="cls-162" points="300.07 129.63 214.59 215.11 212.04 212.56 294.97 129.63 300.07 129.63"/><polygon class="cls-163" points="305.16 129.63 217.13 217.66 214.59 215.11 300.07 129.63 305.16 129.63"/><polygon class="cls-164" points="310.26 129.63 219.68 220.21 217.13 217.66 305.16 129.63 310.26 129.63"/><polygon class="cls-164" points="318.58 129.63 223.84 224.37 219.68 220.21 310.26 129.63 318.58 129.63"/><polygon class="cls-165" points="326.91 129.63 228 228.53 223.84 224.37 318.58 129.63 326.91 129.63"/><polygon class="cls-166" points="335.23 129.63 232.17 232.69 228 228.53 326.91 129.63 335.23 129.63"/><polygon class="cls-167" points="343.55 129.63 236.33 236.85 232.17 232.69 335.23 129.63 343.55 129.63"/><polygon class="cls-168" points="351.88 129.63 240.49 241.02 236.33 236.85 343.55 129.63 351.88 129.63"/><polygon class="cls-169" points="360.2 129.63 244.65 245.18 240.49 241.02 351.88 129.63 360.2 129.63"/><polygon class="cls-170" points="368.52 129.63 248.81 249.34 244.65 245.18 360.2 129.63 368.52 129.63"/><polygon class="cls-171" points="376.84 129.63 252.97 253.5 248.81 249.34 368.52 129.63 376.84 129.63"/><polygon class="cls-172" points="385.17 129.63 257.13 257.66 252.97 253.5 376.84 129.63 385.17 129.63"/><polygon class="cls-172" points="391.27 129.63 501.85 240.21 501.85 370.37 369.84 370.37 257.13 257.66 385.17 129.63 391.27 129.63"/></g><g class="cls-173"><path d="M500,446.3,231.48,598.15c-14.81,9.26-27.78,7.41-37,0L192.59,600l1.85,1.85c9.26,7.41,22.23,9.26,37,0Z"/></g><g class="cls-174"><path d="M192.59,598.15c-5.55-5.56-7.4-14.82-7.4-25.93v1.85c0,11.12,3.7,20.37,9.25,25.93v-1.85Zm400-203.71L500,446.3l1.85,1.85,90.74-51.85c13-7.41,18.52-16.67,18.52-25.93C611.11,379.63,603.7,387,592.59,394.44Z"/></g><g class="cls-175"><path class="cls-2" d="M231.48,140.74,592.59,346.3c11.11,7.4,18.52,14.81,18.52,24.07,0-9.26-5.55-18.52-18.52-25.93L231.48,138.89c-25.92-14.82-46.29-3.7-46.29,25.92v1.86C185.19,138.89,205.56,125.93,231.48,140.74Z"/></g></svg>