<?xml version="1.0" encoding="iso-8859-1"?>
<!-- Uploaded to: SVGRepo, www.svgrepo.com, Transformed by: SVGRepo Tools -->
<svg height="800px" width="800px" version="1.1" id="Layer_1" xmlns="http://www.w3.org/2000/svg" xmlns:xlink="http://www.w3.org/1999/xlink" 
	 viewBox="0 0 512 512" xml:space="preserve">
<g transform="translate(1 1)">
	<path style="fill:#FFFFFF;" d="M475.16,434.2H34.84c-15.36,0-27.307-11.947-27.307-27.307V103.107
		C7.533,87.747,19.48,75.8,34.84,75.8h440.32c15.36,0,27.307,11.947,27.307,27.307v303.787
		C502.467,422.253,490.52,434.2,475.16,434.2L475.16,434.2z"/>
	<path style="fill:#0096E6;" d="M475.16,442.733H34.84C15.213,442.733-1,426.52-1,406.893V103.107
		c0-19.627,16.213-35.84,35.84-35.84h440.32c19.627,0,35.84,16.213,35.84,35.84v303.787C511,426.52,494.787,442.733,475.16,442.733z
		 M34.84,84.333c-10.24,0-18.773,8.533-18.773,18.773v303.787c0,10.24,8.533,18.773,18.773,18.773h440.32
		c10.24,0,18.773-8.533,18.773-18.773V103.107c0-10.24-8.533-18.773-18.773-18.773H34.84z"/>
	<polygon style="fill:#D0E8F9;" points="7.533,118.467 502.467,118.467 502.467,186.733 7.533,186.733 	"/>
	<g>
		<path style="fill:#0096E6;" d="M511,195.267H-1v-85.333h512V195.267z M16.067,178.2h477.867V127H16.067V178.2z"/>
		<path style="fill:#0096E6;" d="M408.6,289.133h-8.533c-5.12,0-8.533-3.413-8.533-8.533c0-5.12,3.413-8.533,8.533-8.533h8.533
			c5.12,0,8.533,3.413,8.533,8.533C417.133,285.72,413.72,289.133,408.6,289.133z M331.8,289.133h-42.667
			c-5.12,0-8.533-3.413-8.533-8.533c0-5.12,3.413-8.533,8.533-8.533H331.8c5.12,0,8.533,3.413,8.533,8.533
			C340.333,285.72,336.92,289.133,331.8,289.133z M220.867,289.133H203.8c-5.12,0-8.533-3.413-8.533-8.533
			c0-5.12,3.413-8.533,8.533-8.533h17.067c5.12,0,8.533,3.413,8.533,8.533C229.4,285.72,225.987,289.133,220.867,289.133z
			 M169.667,289.133h-8.533c-5.12,0-8.533-3.413-8.533-8.533c0-5.12,3.413-8.533,8.533-8.533h8.533c5.12,0,8.533,3.413,8.533,8.533
			C178.2,285.72,174.787,289.133,169.667,289.133z M127,289.133h-17.067c-5.12,0-8.533-3.413-8.533-8.533
			c0-5.12,3.413-8.533,8.533-8.533H127c5.12,0,8.533,3.413,8.533,8.533C135.533,285.72,132.12,289.133,127,289.133z M75.8,289.133
			h-8.533c-5.12,0-8.533-3.413-8.533-8.533c0-5.12,3.413-8.533,8.533-8.533H75.8c5.12,0,8.533,3.413,8.533,8.533
			C84.333,285.72,80.92,289.133,75.8,289.133z M442.733,246.467h-68.267c-5.12,0-8.533-3.413-8.533-8.533
			c0-5.12,3.413-8.533,8.533-8.533h68.267c5.12,0,8.533,3.413,8.533,8.533C451.267,243.053,447.853,246.467,442.733,246.467z
			 M340.333,246.467h-68.267c-5.12,0-8.533-3.413-8.533-8.533c0-5.12,3.413-8.533,8.533-8.533h68.267
			c5.12,0,8.533,3.413,8.533,8.533C348.867,243.053,345.453,246.467,340.333,246.467z M237.933,246.467h-68.267
			c-5.12,0-8.533-3.413-8.533-8.533c0-5.12,3.413-8.533,8.533-8.533h68.267c5.12,0,8.533,3.413,8.533,8.533
			C246.467,243.053,243.053,246.467,237.933,246.467z M135.533,246.467H67.267c-5.12,0-8.533-3.413-8.533-8.533
			c0-5.12,3.413-8.533,8.533-8.533h68.267c5.12,0,8.533,3.413,8.533,8.533C144.067,243.053,140.653,246.467,135.533,246.467z"/>
		<path style="fill:#0096E6;" d="M320.707,318.147c-23.893,12.8-27.307,40.107-28.16,64.853c5.12-1.707,9.387-4.267,14.507-5.973
			c-7.68-6.827-16.213-13.653-23.893-20.48c-8.533-6.827-20.48,5.12-11.947,11.947c7.68,6.827,16.213,13.653,23.893,20.48
			c5.973,5.12,14.507,1.707,14.507-5.973c0.853-18.773,1.707-40.107,19.627-50.347C339.48,327.533,330.093,313.027,320.707,318.147"
			/>
		<path style="fill:#0096E6;" d="M329.24,358.253c17.92,19.627,41.813,10.24,61.44-1.707c-4.267-0.853-7.68-1.707-11.947-3.413
			c5.12,8.533,10.24,12.8,19.627,16.213c7.68,2.56,34.987-10.24,36.693-7.68c6.827,8.533,21.333,0,14.507-8.533
			c-3.413-5.12-7.68-9.387-13.653-9.387c-12.8-0.853-34.133,17.067-42.667,0.853c-2.56-4.267-7.68-5.12-11.947-3.413
			c-11.947,7.68-28.16,17.92-40.96,4.267C333.507,337.773,321.56,349.72,329.24,358.253"/>
		<path style="fill:#0096E6;" d="M365.933,152.6c0,5.12-3.413,8.533-8.533,8.533s-8.533-3.413-8.533-8.533
			c0-5.12,3.413-8.533,8.533-8.533S365.933,147.48,365.933,152.6"/>
		<path style="fill:#0096E6;" d="M391.533,127c0,5.12-3.413,8.533-8.533,8.533c-5.12,0-8.533-3.413-8.533-8.533
			s3.413-8.533,8.533-8.533C388.12,118.467,391.533,121.88,391.533,127"/>
		<path style="fill:#0096E6;" d="M391.533,178.2c0,5.12-3.413,8.533-8.533,8.533c-5.12,0-8.533-3.413-8.533-8.533
			c0-5.12,3.413-8.533,8.533-8.533C388.12,169.667,391.533,173.08,391.533,178.2"/>
		<path style="fill:#0096E6;" d="M417.133,152.6c0,5.12-3.413,8.533-8.533,8.533c-5.12,0-8.533-3.413-8.533-8.533
			c0-5.12,3.413-8.533,8.533-8.533C413.72,144.067,417.133,147.48,417.133,152.6"/>
		<path style="fill:#0096E6;" d="M212.333,152.6c0,5.12-3.413,8.533-8.533,8.533c-5.12,0-8.533-3.413-8.533-8.533
			c0-5.12,3.413-8.533,8.533-8.533C208.92,144.067,212.333,147.48,212.333,152.6"/>
		<path style="fill:#0096E6;" d="M237.933,127c0,5.12-3.413,8.533-8.533,8.533c-5.12,0-8.533-3.413-8.533-8.533
			s3.413-8.533,8.533-8.533C234.52,118.467,237.933,121.88,237.933,127"/>
		<path style="fill:#0096E6;" d="M237.933,178.2c0,5.12-3.413,8.533-8.533,8.533c-5.12,0-8.533-3.413-8.533-8.533
			c0-5.12,3.413-8.533,8.533-8.533C234.52,169.667,237.933,173.08,237.933,178.2"/>
		<path style="fill:#0096E6;" d="M263.533,152.6c0,5.12-3.413,8.533-8.533,8.533s-8.533-3.413-8.533-8.533
			c0-5.12,3.413-8.533,8.533-8.533S263.533,147.48,263.533,152.6"/>
		<path style="fill:#0096E6;" d="M314.733,152.6c0,5.12-3.413,8.533-8.533,8.533s-8.533-3.413-8.533-8.533
			c0-5.12,3.413-8.533,8.533-8.533S314.733,147.48,314.733,152.6"/>
		<path style="fill:#0096E6;" d="M289.133,127c0,5.12-3.413,8.533-8.533,8.533s-8.533-3.413-8.533-8.533s3.413-8.533,8.533-8.533
			S289.133,121.88,289.133,127"/>
		<path style="fill:#0096E6;" d="M340.333,127c0,5.12-3.413,8.533-8.533,8.533s-8.533-3.413-8.533-8.533s3.413-8.533,8.533-8.533
			S340.333,121.88,340.333,127"/>
		<path style="fill:#0096E6;" d="M289.133,178.2c0,5.12-3.413,8.533-8.533,8.533s-8.533-3.413-8.533-8.533
			c0-5.12,3.413-8.533,8.533-8.533S289.133,173.08,289.133,178.2"/>
		<path style="fill:#0096E6;" d="M340.333,178.2c0,5.12-3.413,8.533-8.533,8.533s-8.533-3.413-8.533-8.533
			c0-5.12,3.413-8.533,8.533-8.533S340.333,173.08,340.333,178.2"/>
		<path style="fill:#0096E6;" d="M468.333,152.6c0,5.12-3.413,8.533-8.533,8.533s-8.533-3.413-8.533-8.533
			c0-5.12,3.413-8.533,8.533-8.533S468.333,147.48,468.333,152.6"/>
		<path style="fill:#0096E6;" d="M493.933,127c0,5.12-3.413,8.533-8.533,8.533s-8.533-3.413-8.533-8.533s3.413-8.533,8.533-8.533
			S493.933,121.88,493.933,127"/>
		<path style="fill:#0096E6;" d="M493.933,178.2c0,5.12-3.413,8.533-8.533,8.533s-8.533-3.413-8.533-8.533
			c0-5.12,3.413-8.533,8.533-8.533S493.933,173.08,493.933,178.2"/>
		<path style="fill:#0096E6;" d="M442.733,127c0,5.12-3.413,8.533-8.533,8.533c-5.12,0-8.533-3.413-8.533-8.533
			s3.413-8.533,8.533-8.533C439.32,118.467,442.733,121.88,442.733,127"/>
		<path style="fill:#0096E6;" d="M442.733,178.2c0,5.12-3.413,8.533-8.533,8.533c-5.12,0-8.533-3.413-8.533-8.533
			c0-5.12,3.413-8.533,8.533-8.533C439.32,169.667,442.733,173.08,442.733,178.2"/>
		<path style="fill:#0096E6;" d="M161.133,152.6c0,5.12-3.413,8.533-8.533,8.533c-5.12,0-8.533-3.413-8.533-8.533
			c0-5.12,3.413-8.533,8.533-8.533C157.72,144.067,161.133,147.48,161.133,152.6"/>
		<path style="fill:#0096E6;" d="M186.733,127c0,5.12-3.413,8.533-8.533,8.533c-5.12,0-8.533-3.413-8.533-8.533
			s3.413-8.533,8.533-8.533C183.32,118.467,186.733,121.88,186.733,127"/>
		<path style="fill:#0096E6;" d="M186.733,178.2c0,5.12-3.413,8.533-8.533,8.533c-5.12,0-8.533-3.413-8.533-8.533
			c0-5.12,3.413-8.533,8.533-8.533C183.32,169.667,186.733,173.08,186.733,178.2"/>
		<path style="fill:#0096E6;" d="M33.133,127c0,5.12-3.413,8.533-8.533,8.533s-8.533-3.413-8.533-8.533s3.413-8.533,8.533-8.533
			S33.133,121.88,33.133,127"/>
		<path style="fill:#0096E6;" d="M33.133,178.2c0,5.12-3.413,8.533-8.533,8.533s-8.533-3.413-8.533-8.533
			c0-5.12,3.413-8.533,8.533-8.533S33.133,173.08,33.133,178.2"/>
		<path style="fill:#0096E6;" d="M58.733,152.6c0,5.12-3.413,8.533-8.533,8.533s-8.533-3.413-8.533-8.533
			c0-5.12,3.413-8.533,8.533-8.533S58.733,147.48,58.733,152.6"/>
		<path style="fill:#0096E6;" d="M109.933,152.6c0,5.12-3.413,8.533-8.533,8.533c-5.12,0-8.533-3.413-8.533-8.533
			c0-5.12,3.413-8.533,8.533-8.533C106.52,144.067,109.933,147.48,109.933,152.6"/>
		<path style="fill:#0096E6;" d="M84.333,127c0,5.12-3.413,8.533-8.533,8.533s-8.533-3.413-8.533-8.533s3.413-8.533,8.533-8.533
			C80.92,118.467,84.333,121.88,84.333,127"/>
		<path style="fill:#0096E6;" d="M135.533,127c0,5.12-3.413,8.533-8.533,8.533s-8.533-3.413-8.533-8.533s3.413-8.533,8.533-8.533
			S135.533,121.88,135.533,127"/>
		<path style="fill:#0096E6;" d="M84.333,178.2c0,5.12-3.413,8.533-8.533,8.533s-8.533-3.413-8.533-8.533
			c0-5.12,3.413-8.533,8.533-8.533C80.92,169.667,84.333,173.08,84.333,178.2"/>
		<path style="fill:#0096E6;" d="M135.533,178.2c0,5.12-3.413,8.533-8.533,8.533s-8.533-3.413-8.533-8.533
			c0-5.12,3.413-8.533,8.533-8.533S135.533,173.08,135.533,178.2"/>
	</g>
</g>
<g>
</g>
<g>
</g>
<g>
</g>
<g>
</g>
<g>
</g>
<g>
</g>
<g>
</g>
<g>
</g>
<g>
</g>
<g>
</g>
<g>
</g>
<g>
</g>
<g>
</g>
<g>
</g>
<g>
</g>
</svg>
