<?xml version="1.0" ?><!-- Uploaded to: SVG Repo, www.svgrepo.com, Generator: SVG Repo Mixer Tools -->
<svg width="800px" height="800px" viewBox="0 0 64 64" data-name="Layer 1" id="Layer_1" xmlns="http://www.w3.org/2000/svg"><defs><style>.cls-1{fill:#0074ff;}.cls-2{fill:#ffb300;}</style></defs><title/><path class="cls-1" d="M58,56.5H54.54a2,2,0,0,1,0-4L32,13.5,9.48,52.5H43.79a2,2,0,0,1,0,4H6a2,2,0,0,1-1.73-3l26-45a2,2,0,0,1,3.46,0l26,45a2,2,0,0,1-1.73,3Z"/><path class="cls-2" d="M32,48.54a2,2,0,0,1-2-2V45.21a2,2,0,0,1,4,0v1.33A2,2,0,0,1,32,48.54Z"/><path class="cls-2" d="M32,41.54a2,2,0,0,1-2-2V27.21a2,2,0,0,1,4,0V39.54A2,2,0,0,1,32,41.54Z"/></svg>